<?xml version="1.0" encoding="utf-8"?>
<!-- Generator: Adobe Illustrator 19.2.1, SVG Export Plug-In . SVG Version: 6.00 Build 0)  -->
<svg version="1.1" id="Слой_1" xmlns="http://www.w3.org/2000/svg" xmlns:xlink="http://www.w3.org/1999/xlink" x="0px" y="0px"
	 viewBox="0 0 870 870" style="enable-background:new 0 0 870 870;" xml:space="preserve">
<style type="text/css">
	.st0{opacity:0.42;fill:#FFFFFF;enable-background:new    ;}
	.st1{fill:#E6E6E5;}
	.st2{fill:#E12F62;}
</style>
<title>1</title>
<circle class="st0" cx="435" cy="435" r="435"/>
<path class="st1" d="M715.2,569.9c0,45.9-1.8,91.8,0.7,137.6c1.5,26.7-5.8,35.2-32.5,32.3c-24.4-2.6-49.3-0.5-74-0.5
	c0-40.5,3-81.3-0.8-121.4c-5.2-54.5-12-127-59.9-144.3c-74.8-27-57-57.1-31.4-103.4c15.5-28.1,18.2-59.8,18-92.1
	c-0.2-33-14.2-53.5-45.2-62.6c-3.5-1-8.4,2.6-11.3,3.6c-3.7,19.9,22.3,16.3,21.8,33.9c-39.7,15.7-79.9,14.3-118.1-1.3
	c-40.9-16.7-48.8-0.4-48.2,36.8c0.6,38.3,12,72,29.8,105.2c18.4,34.4,22.8,65.1-30.1,70.9c-30.3,3.3-36.4,30.3-46.9,51.9
	c-34.7,71-28.3,147.3-26.9,222.8c-35.3,0-84.3,13.8-102-3.9s-3.9-66.7-3.9-102v-74c17.7-38,44.6-70.4,84.2-81.6
	c59.4-16.7,61.3-53.2,46.8-100.9c-4.6-15.1-9.2-30.4-11.3-45.9c-10.8-78.8-9.9-153.3,59.1-211.6c29.4-24.8,66.6-18.5,96.4-36.3H440
	c6.1,3.1,12,7.8,18.5,8.9c90.2,16,139.1,74.4,141.8,166.1c1.4,48.4-10.5,94.3-25,138.9c-13.1,40.1,0.6,61.9,36.5,71.7
	C665.9,483.5,697.8,518.8,715.2,569.9z"/>
<path class="st2" d="M530.9,493.6c20.8,14.8,23.2,36.4,29.1,56.1c22.8,77.2,10.4,93.8-69.6,93.8c-47.5,0-95-1.3-142.5,0.4
	c-37.6,1.3-50.6-16-47.6-51.3c3.2-37.2,17.3-70.4,33.1-108.5c36.3,33.5,41.4,93.2,98.1,96.8C491.7,584.7,502.1,528.1,530.9,493.6z"
	/>
</svg>
