<svg id="Слой_1" data-name="Слой 1" xmlns="http://www.w3.org/2000/svg" viewBox="0 0 870 870"><defs><style>.cls-1{fill:#fff;opacity:0.42;isolation:isolate;}.cls-2{fill:#e6e6e5;}.cls-3{fill:#e13062;}</style></defs><title>2</title><circle class="cls-1" cx="435" cy="435" r="435"/><path class="cls-2" d="M686.5,468.5L516.8,546.3,384.9,468.5c0,1.5,32.8-26.7,32.8-26.7l48.6-45.6,0.7-29.5,190.1-1.5c-0.1-1.5-.3-138.6-0.1-140.1l0.1-32.1H365.4v33.9l-1.2,108.7-13,5c-38.6,12.4-75,46.7-62.5,89,20.5-16.2,77.6-65.3,95.8-82.4,20.3-19,41.6-29,60.4-3.5,17.1,23.2,4.9,44.6-15.3,62.2C397,434.2,360,459.5,333.9,493c-55.9,71.7-128.1,71.4-205.8,58.4V425.9c29.5-5.8,47.4-25.3,65.8-48,27.6-34.2,105.7-103.1,147.3-123.5l2.1-88.5H684c0,52.1-1.8,205.4-1.8,205.4L673.8,392s37.1,45.5,37.1,43c0,76.2.6,228.7,0.6,228.7v23s-265.1-.6-386.2-0.6c-1-41.4-.4-128.2-0.6-148.9,0,0,7.3.2,19.9,0l-0.2,73L344.3,629l111.1-66.6,14.9-8.7,12.8,17.1-10.9,6.5-127.5,78c88.9,0,241.3-1.4,337.9-1.4l-133-73-9.9-5.3,11.6-20.5,69.3,39.3,67.8,32.9" transform="translate(0 0)"/><path class="cls-3" d="M473.6,223.4c3.8-.2,18,3.6,21.1,5.7,11.4,7.7,21,7.8,33.3,2,21.1-10,51.6-12.6,49.2,32.8-1,20.5-50.1,72.4-66.9,71.8-18-.5-66.9-57.9-66-77.3C445.4,237.8,452.5,224.5,473.6,223.4Z" transform="translate(0 0)"/></svg>