<?xml version="1.0" encoding="utf-8"?>
<!-- Generator: Adobe Illustrator 19.2.1, SVG Export Plug-In . SVG Version: 6.00 Build 0)  -->
<svg version="1.1" id="Слой_1" xmlns="http://www.w3.org/2000/svg" xmlns:xlink="http://www.w3.org/1999/xlink" x="0px" y="0px"
	 viewBox="0 0 870 870" style="enable-background:new 0 0 870 870;" xml:space="preserve">
<style type="text/css">
	.st0{opacity:0.42;fill:#FFFFFF;enable-background:new    ;}
	.st1{fill:#E6E6E5;}
	.st2{fill:#E0225C;}
</style>
<title>3</title>
<circle class="st0" cx="435" cy="435" r="435"/>
<path class="st1" d="M358,662.4c-1.1,1.1-2.3,2.2-3.3,3.4c-0.8,1.1-1.5,2.2-2.2,3.4l-1.9-0.8c1.7-4,2.7-8.5,5.3-11.8
	c7-8.9,14.9-17,21.9-25.9c2.1-2.8,3.1-6.4,2.7-9.9c-3.3-20.6-7.1-41.2-11.1-61.7c-0.4-1.9-3.1-3.9-5.1-4.7
	c-4.2-1.8-8.9-2.9-13.4-4.3l-0.1-2.4c3.5-2.2,6.6-5.3,10.4-6.4c4.7-1.4,6.1-3.4,6-8.4c-1.4-39.4,0.8-78.7,5.1-117.9
	c0.1-1.3,0.1-2.6,0-3.9l-14.7-5.1c4.3-2.8,7-5.8,10-6.3c5.7-0.9,6.5-3.9,6.9-8.7c0.9-11.7,2.2-23.4,3.6-35.1c0.5-4.4-1-6.7-5.4-7.3
	c-1.4-0.2-2.7-0.8-4.1-1c-21.9-3.3-35-17.5-44.8-35.8c-0.7-1.2-1.3-2.5-1.9-3.8c0-0.9,0.1-1.8,0.4-2.7l22.5,9.3l2-1.2l-7.7-25.9
	c8.9,8.8,16.9,15.9,24,23.8c9.5,10.7,19.8,11.2,29.1-0.2c3.7-4.6,5.8-10.6,8.8-16.4c0.7,0.2,1.4,0.6,1.9,1.1
	c13.6,15.8,30.5,19.2,50.4,15.4c14.9-2.8,30.1-3.5,45.4-4.1L454,319.4c-15.2,4.1-28.3,11.2-37,25.2c-4.9,7.9-13.5,7.9-21.6,7.5
	c-4.4-0.2-7.2,0.5-7.6,5.7c-2.8,33.1-5.8,66.1-9,99.2c-0.6,5.7,0.9,9.3,6.1,11.9c4,2,7.4,5,11.1,7.6l-1,1.4l-16.7-10.5v19.1
	c3.8-1.5,8.5-5.1,12.7-4.7c4.9,0.5,10,3.9,14.2,7.1c10.9,8.3,22.4,15.2,35.8,18.6c-18.6-7.4-31.3-22.2-45.3-35.3
	c-5.9-5.5-6.2-13.7-2.1-22.2c3.7-7.5,9.8-12.4,16.5-10.4c5.9,1.9,11.2,5.4,15.3,10.1c4.9,5.8,8.2,13.1,11.8,20
	c8.7,16.5,19.7,31,34.3,42.6c1.5,1,3.1,1.8,4.8,2.4c-32.6,22.9-83.4,25.2-98.3-6.2c-0.6,1.4-1.4,2.3-1.4,3.2
	c2.3,24.5,4.7,49.1,7.1,73.7c0.4,4.2,2.3,6.6,7.1,6.8c2.7,0.1,5.4,2.1,9.8,3.9l-13.2,7.6c3.4,12.9,6.1,26.5,10.4,39.6
	c8.4,25.5,17.6,50.7,26.4,76c1.5,4.4,3.3,8,9.2,7.7c2.6-0.1,5.4,2.1,9.5,3.8l-11.1,7.3c6,14.2,12,28.3,18.1,42.5
	c4.2,9.9,8.6,19.8,12.9,29.7c1.5,3.5,2.5,7-1.8,9.1c-4.9,2.3-6.2-1.7-7.6-4.9c-24.8-56.9-50.6-113.4-67.5-173.4
	c-0.6-2.2-1.7-4.2-3.4-8.7l-24.7,30.5L358,662.4z"/>
<path class="st2" d="M422.9,298.9c5.7-12.5,11.3-23.8,16-35.5c8.8-21.9,16.6-44.1,15.7-68.2c-0.3-5.2-1-10.3-2.3-15.3
	c-1.4-6.1-0.4-11.1,5.5-13.6c9-3.9,18.2-7.4,27.6-10.4c12.7-4,25.9-6.9,38.6-11.1c6.5-2.2,12.5-6.1,18.5-9.1
	c-1.3,9.4-3.4,19.8-3.9,30.4c-0.8,12.9-0.8,25.8,0.2,38.7c2,24.4-6,45-21.9,62.7C491.9,295,460.4,304,422.9,298.9z"/>
<path class="st2" d="M411.5,65.8c-4.2,3.6-8.7,7.1-12.7,10.9c-14.2,13.5-16.2,23.8-8.8,41.9c3.8,9.1,9.2,17.4,15.9,24.5
	c29.1,31.8,34.2,68.5,18.9,108.3c-4,10.4-9.8,20.2-15.2,29.9c2.4-12,5.1-23.9,7-35.9c4.5-29.2-7.9-51.7-30.2-68.8
	c-17.7-13.5-36.8-25.3-55.4-37.8c-3.6-2.4-9.4-4.3-7.4-9.6c1.3-3.5,5.7-6.9,9.4-8.1c5.4-1.8,11.6-1.2,17.3-2.5
	c2.9-0.7,7.3-2.8,7.7-5.1c1.5-7.9,2.3-16,2.4-24.1c0.1-4.9-1.7-9.7-1.8-14.6c-0.3-15,7.8-22.9,22.5-20.6c10.5,1.6,20.5,5.8,30.8,8.8
	L411.5,65.8z"/>
<path class="st2" d="M385.2,298.3c-10-9.5-18.8-19-28.7-27.1c-35.4-28.6-40.2-69.2-20.1-106.9c25.3,13.4,50.4,27.4,61.4,55.9
	c7.9,20.4,3.2,40.8-4.4,60.5C390.9,287.1,387.5,293.4,385.2,298.3z"/>
<path class="st1" d="M357.8,662.6c6.4-1.9,12.7-4.9,19.2-5.4c5.9-0.6,11.3,3.7,11.9,9.7c0,0,0,0.1,0,0.1c0.1,1,0.1,1.9-0.1,2.9
	c-0.8,6.6-2.4,13.7-6,19.2c-11.2,17.4-20.4,35.4-23.3,56.2c-0.3,1-0.7,1.9-1.2,2.8c-10.7-4.9-20.1-12.1-27.7-21.1
	c-10.5-12.1-17.1-26-15.1-42.6c1.3-10.9,11.3-20.7,22.1-21.6c5.5-0.4,9.3,2.5,9.9,7.9c0.5,5.1-0.2,10.3-0.2,15.5v29.9l10.8-53.8
	L357.8,662.6z"/>
<path class="st2" d="M440.6,143.4c1.3-5.3,2.1-10.3,3.6-15.1c3.1-10.1,6.9-20,9.9-30.1s8.9-13.7,18.5-9.7c4.8,1.9,9,5,12.3,9
	c4.6,6.5,8.5,13.5,11.7,20.8c2.9,6.3-3.8,16.7-12.7,19.9c-3.8,1.2-7.7,2-11.7,2.3C462.1,141.5,452.1,142.3,440.6,143.4z"/>
<path class="st2" d="M434.1,151.8c-9-13.5-17.1-27.6-20.2-44.2c-2.3-12,3-21.1,11.3-28.9c4.4-4.2,9.1-8.2,13.9-12
	c9.2-7.1,27.2-0.7,28.8,10.5c-3.1-0.9-5.9-1.7-8.8-2.5c-6.5-1.7-11.5,0.8-13.9,6.6c-4.1,9.9-9.1,19.8-10.6,30.2
	C432.7,124.7,434.1,138.2,434.1,151.8z"/>
<path class="st2" d="M508.6,71.7c-10.4-4.2-16.2-1.9-17.9,8.2c-3.6-5.2-7-9.4-9.6-13.9c-2.2-3.8-0.7-6.5,4-6.4
	c13.8,0.3,26.6,3.9,34.1,16.3c5.9,9.8,10.8,20.3,14.4,31.2c4.9,15.1,2.4,18.5-13.7,23.4c-0.5-17.5-8-31.5-20.7-43.3
	c-2.5-2.4-4-7.9-3.2-11.3c1.1-5,6.3-4.5,10.7-3.7C507.4,72.2,508,72,508.6,71.7z"/>
</svg>
