<?xml version="1.0" encoding="utf-8"?>
<!-- Generator: Adobe Illustrator 19.2.1, SVG Export Plug-In . SVG Version: 6.00 Build 0)  -->
<svg version="1.1" id="Слой_1" xmlns="http://www.w3.org/2000/svg" xmlns:xlink="http://www.w3.org/1999/xlink" x="0px" y="0px"
	 viewBox="0 0 870 870" style="enable-background:new 0 0 870 870;" xml:space="preserve">
<style type="text/css">
	.st0{opacity:0.42;fill:#FFFFFF;enable-background:new    ;}
	.st1{fill:#E6E6E5;}
	.st2{fill:#E12F62;}
</style>
<title>4</title>
<circle class="st0" cx="435" cy="438.4" r="435"/>
<path class="st1" d="M505.1,253.5c-0.6-26.7-14.7-40.9-41.2-43.5c-75-7.2-150.5-7.5-225.5-0.9c-46.3,4.1-56.3,14.5-55.6,61.9
	c0.8,49.5-0.2,149.6-0.2,149.6s0.5,132.6,0.5,135.3l27.2,4.9c0.4-8.8,0.1-26.6,0.1-26.6l0.9-232c-0.2-15.3,3.5-20.5,19.7-20.3
	c75.3,0.9,150.6,0.9,225.8,0c16.4-0.2,20,5.3,19.4,20.3c-1,27.9-0.3,55.8-0.3,83.7l29.6-29.4C505.5,356.4,505.8,285.5,505.1,253.5z
	 M366.8,259.4c-14.3,0.3-28.7,0.4-43,0.3c-7.3-0.1-15.6-0.4-15.4-10.5c0.2-10.1,8.5-9.8,15.8-9.9c6.4-0.1,12.8,0,19.1,0v0.2
	c8,0,16-0.3,23.9,0.1c6.1,0.3,11.1,2.9,10.9,10C377.7,256.3,373,259.2,366.8,259.4z"/>
<path class="st1" d="M183.1,567.1c-0.2,28.8-0.9,57.5-0.3,86.3c0.6,26.4,14.6,41.1,41.2,43.4c30.2,2.6,60.6,4.6,90.9,5.5
	c47.9,1.7,95.9-0.2,143.6-5.6c3.7-0.4,8.2-0.9,10.7-3.2s0.4-6.2-2.4-8.1c-34.8-24.3-57.5-61.4-91.4-86.7l-15.7-0.1h-8.2l-4.2,0.1
	l-19.9-0.6c0.4-0.4-47.2-0.9-47.2-0.9l-27.4-0.5c-2.4-0.6-4.8,0-7.1-0.6c0,0-35.3-1.2-35.4-0.3c0-1.7,0.1-35,0.1-35l-27.2-4.9
	C183.1,559.6,183.1,563.3,183.1,567.1z M370.1,633.1c13.7-0.2,26.6-0.9,26.6,13.2c0,14.9-12.9,15.1-24.7,15.5
	c-11.3,0.4-17.3-1.5-17.3-15.3C354.7,631.3,363.2,632.2,370.1,633.1L370.1,633.1z M316.1,632.9c11.1-0.7,17.5,0.7,17.3,14.8
	c-0.1,15-7.9,15-16.6,13.9c-13.2,0.1-26.9,0-26.5-15.1C290.7,631.2,305.1,633.6,316.1,632.9L316.1,632.9z"/>
<path class="st2" d="M738.2,435.7c-40.1-39-79.7-78.6-118.7-118.8c-14.3-14.7-25.1-15.5-39.8-0.4c-42.3,43.6-85.8,86.1-128.8,129.1
	c0,0.3,0.1,0.7,0.1,1c0-0.3-0.1-0.7-0.1-1l-28.3,30.1c-16.5,15.9-32.6,32.3-49.7,47.6c-16,14.3-17.8,27.3,0.2,40.7l8.8,8.8l6.8,5.5
	l8,8.2c0,0,14.7,16.7,21.9,24.7c23,25.4,49.1,47.9,73.1,72.4c14.1,14.4,24.7,11.9,38-1.5c69.2-69.9,138.8-139.4,208.7-208.4
	C752.3,460.1,752.3,449.3,738.2,435.7z M425.4,536.1c10.2-10.7,20.5-21.3,30.6-32l21.8-21.8c1.7-1.7,12.3-12,18.2-17.2
	c4.5-4,8.3-11.3,15.6-4.3s0.1,10.8-3.8,15.5c0,0-51.5,50.3-76.7,76c-2.6,2.6-6.7,3.1-9.7,1C414.3,548.5,419.3,542.4,425.4,536.1z
	 M433,556.2L433,556.2z M543.4,518.4c0,0-45.8,44.8-70.6,69.5c-1.6,1.6-3.8,2.3-6,2c-3.1-0.5-5.9-2.2-7.8-4.7
	c-1.8-2.7-1.5-6.3,0.9-8.6l70.4-72.3c0,0,10.7-13,19-5.4C559.1,507.9,543.4,518.4,543.4,518.4L543.4,518.4L543.4,518.4z M596,466.4
	l-7.1,5.9l-52.8-51.7c0,0,5.8-6.3,8.2-9.2c4.1-4.9,47.3-47.7,51.9-52.2l42.7,44.2c0.1,0.1,0.2,0.3,0.3,0.4l10.1,9.6L596,466.4z"/>
<path class="st2" d="M594,440.8c-17.7-0.8-26.4-9.9-26.2-25.7c0.2-16.3,10.3-24.7,26.1-24.4c14.9,0.3,23.6,9.4,23.8,24.3
	C617.7,431,608.8,439.8,594,440.8z"/>
</svg>
