<svg id="Слой_1" data-name="Слой 1" xmlns="http://www.w3.org/2000/svg" viewBox="0 0 385.52 42.28"><title>gros</title><path d="M269.73,390.54a9,9,0,0,1,3.38,0v7.3a8.14,8.14,0,0,1-2.53,1,13.67,13.67,0,0,1-3.38.41,9.49,9.49,0,0,1-7-2.61,9,9,0,0,1,.05-12.8,9.49,9.49,0,0,1,7-2.61,9.91,9.91,0,0,1,5.43,1.44,4.87,4.87,0,0,1,.16,1.61,4.09,4.09,0,0,1-.21,1.56,9.7,9.7,0,0,0-5.24-1.7,6.24,6.24,0,0,0-4.48,1.7,5.89,5.89,0,0,0-1.82,4.43,6,6,0,0,0,1.8,4.51,6.24,6.24,0,0,0,4.48,1.72,6.54,6.54,0,0,0,2.34-.43v-5.53h0Z" transform="translate(-112.68 -373.99)" style="fill:#3c4040"/><path d="M283.57,381.62a6.77,6.77,0,0,1,4.68,1.57,5.21,5.21,0,0,1,1.75,4.07,5.35,5.35,0,0,1-1,3.17,5.24,5.24,0,0,1-2.71,1.94l4.44,6.55a10.43,10.43,0,0,1-3.78,0l-4.13-6H280.3v6a9.45,9.45,0,0,1-3.46,0v-17.3h6.73Zm-3.3,8.38h3.27a3.07,3.07,0,0,0,2.16-.73,2.59,2.59,0,0,0,.8-2,2.63,2.63,0,0,0-.8-2,3,3,0,0,0-2.16-.75h-3.27Z" transform="translate(-112.68 -373.99)" style="fill:#3c4040"/><path d="M308.55,383.84a8.83,8.83,0,0,1,2.54,6.43,9.14,9.14,0,1,1-18.28,0h0a9.26,9.26,0,0,1,15.74-6.43Zm-10.59,2a6.92,6.92,0,0,0,0,8.92,5.55,5.55,0,0,0,7.85.15h0l.15-.15a7,7,0,0,0,0-8.92,5.55,5.55,0,0,0-7.85-.18h0l-.18.18h0Z" transform="translate(-112.68 -373.99)" style="fill:#3c4040"/><path d="M324.5,382.66a5.89,5.89,0,0,1,.17,1.72,3.7,3.7,0,0,1-.17,1.62,9.38,9.38,0,0,0-4.82-1.86,2.93,2.93,0,0,0-1.9.57,1.84,1.84,0,0,0-.7,1.5,1.59,1.59,0,0,0,.76,1.44,13.32,13.32,0,0,0,2.83,1.12,14.35,14.35,0,0,1,1.8.65,8.63,8.63,0,0,1,1.54.93,3.86,3.86,0,0,1,1.23,1.53,5.19,5.19,0,0,1,.43,2.18,4.7,4.7,0,0,1-1.76,3.9,6.92,6.92,0,0,1-4.44,1.4,9.61,9.61,0,0,1-5.27-1.48,5.55,5.55,0,0,1-.16-1.72,4.46,4.46,0,0,1,.16-1.61,9.76,9.76,0,0,0,5.14,1.89,3.23,3.23,0,0,0,2.08-.6,1.9,1.9,0,0,0,.75-1.56,1.65,1.65,0,0,0-.75-1.49,13.48,13.48,0,0,0-2.9-1.14,15.44,15.44,0,0,1-1.78-.71,9.46,9.46,0,0,1-1.53-.94,3.84,3.84,0,0,1-1.21-1.5,4.7,4.7,0,0,1-.41-2,5,5,0,0,1,1.62-3.77,6.22,6.22,0,0,1,4.44-1.53A8.54,8.54,0,0,1,324.5,382.66Z" transform="translate(-112.68 -373.99)" style="fill:#3c4040"/><path d="M339.09,382.66a5.88,5.88,0,0,1,.17,1.72,3.7,3.7,0,0,1-.17,1.58,9.38,9.38,0,0,0-4.82-1.86,2.93,2.93,0,0,0-1.9.57,1.84,1.84,0,0,0-.7,1.5,1.59,1.59,0,0,0,.76,1.44,13.32,13.32,0,0,0,2.83,1.12,14.35,14.35,0,0,1,1.8.65,8.63,8.63,0,0,1,1.54.93,3.86,3.86,0,0,1,1.2,1.53,5.19,5.19,0,0,1,.43,2.18,4.7,4.7,0,0,1-1.76,3.9,6.92,6.92,0,0,1-4.44,1.4,9.61,9.61,0,0,1-5.28-1.48,5.55,5.55,0,0,1-.16-1.72,4.46,4.46,0,0,1,.16-1.61,9.76,9.76,0,0,0,5.14,1.89,3.23,3.23,0,0,0,2.08-.6,1.9,1.9,0,0,0,.75-1.56,1.65,1.65,0,0,0-.75-1.49,13.48,13.48,0,0,0-2.9-1.14,15.44,15.44,0,0,1-1.78-.71,9.45,9.45,0,0,1-1.53-.94,3.83,3.83,0,0,1-1.2-1.46,4.7,4.7,0,0,1-.41-2,5,5,0,0,1,1.62-3.77,6.22,6.22,0,0,1,4.44-1.53A8.54,8.54,0,0,1,339.09,382.66Z" transform="translate(-112.68 -373.99)" style="fill:#3c4040"/><path d="M364.74,398.92a8.88,8.88,0,0,1-3.35,0l-2.5-11.15-4,11.15a7.27,7.27,0,0,1-2.77,0l-4-11.15-2.48,11.15a9,9,0,0,1-3.38,0l4.07-17.3a8,8,0,0,1,2.9,0l4.28,11.9,4.29-11.9a8,8,0,0,1,2.9,0Z" transform="translate(-112.68 -373.99)" style="fill:#3c4040"/><path d="M383.36,398.92a9.3,9.3,0,0,1-3.57,0l-1.49-3.83h-7l-1.49,3.83a9.3,9.3,0,0,1-3.57,0l7.11-17.3a7.84,7.84,0,0,1,2.87,0Zm-6.15-6.73-2.4-6.12-2.4,6.12Z" transform="translate(-112.68 -373.99)" style="fill:#3c4040"/><path d="M401.17,398.92a7,7,0,0,1-2.72,0l-9.08-11.5v11.5a9.45,9.45,0,0,1-3.46,0v-17.3a7,7,0,0,1,2.72,0l9.1,11.5v-11.5a9.31,9.31,0,0,1,3.43,0v17.3h0Z" transform="translate(-112.68 -373.99)" style="fill:#3c4040"/><path d="M422.48,390.54a9,9,0,0,1,3.38,0v7.3a8.14,8.14,0,0,1-2.53,1,13.67,13.67,0,0,1-3.38.41,9.49,9.49,0,0,1-7-2.61,9,9,0,0,1,0-12.8,9.49,9.49,0,0,1,7-2.61,9.91,9.91,0,0,1,5.43,1.44,4.87,4.87,0,0,1,.16,1.61,4.09,4.09,0,0,1-.16,1.53,9.7,9.7,0,0,0-5.24-1.7,6.24,6.24,0,0,0-4.53,1.73,5.89,5.89,0,0,0-1.8,4.46,6,6,0,0,0,1.8,4.51,6.24,6.24,0,0,0,4.44,1.69,6.54,6.54,0,0,0,2.34-.43v-5.53h0Z" transform="translate(-112.68 -373.99)" style="fill:#3c4040"/><path d="M436.32,381.62a6.77,6.77,0,0,1,4.68,1.57,5.21,5.21,0,0,1,1.76,4.07,5.35,5.35,0,0,1-1,3.17,5.24,5.24,0,0,1-2.67,1.94l4.44,6.55a10.43,10.43,0,0,1-3.78,0l-4.13-6h-2.53v6a9.45,9.45,0,0,1-3.46,0v-17.3ZM433,390h3.27a3.07,3.07,0,0,0,2.16-.73,2.59,2.59,0,0,0,.8-2,2.63,2.63,0,0,0-.8-2,3,3,0,0,0-2.16-.75H433Z" transform="translate(-112.68 -373.99)" style="fill:#3c4040"/><path d="M461.29,383.84a8.83,8.83,0,0,1,2.57,6.43,9.14,9.14,0,1,1-18.28,0h0a9.26,9.26,0,0,1,15.71-6.43Zm-10.59,2a6.94,6.94,0,0,0,0,8.89,5.55,5.55,0,0,0,7.85.15h0l.15-.15a6.94,6.94,0,0,0,0-8.89,5.55,5.55,0,0,0-7.85-.17h0l-.17.17h0Z" transform="translate(-112.68 -373.99)" style="fill:#3c4040"/><path d="M477.94,381.62a9.74,9.74,0,0,1,3.51,0v10.22q0,3.73-1.88,5.59a8.59,8.59,0,0,1-10.69,0q-1.88-1.86-1.88-5.59V381.62a9.74,9.74,0,0,1,3.51,0v10.75a4.3,4.3,0,0,0,1,3,3.48,3.48,0,0,0,2.74,1.1,3.44,3.44,0,0,0,2.73-1.1,4.34,4.34,0,0,0,1-3V381.62h0Z" transform="translate(-112.68 -373.99)" style="fill:#3c4040"/><path d="M491.75,381.62a6.7,6.7,0,0,1,4.68,1.6,5.71,5.71,0,0,1,0,8.25,6.7,6.7,0,0,1-4.68,1.6h-3.11v5.85a9.45,9.45,0,0,1-3.46,0v-17.3h6.57Zm0,8.57a3,3,0,0,0,2.16-.76,3.12,3.12,0,0,0,0-4.17,3,3,0,0,0-2.16-.77h-3.11v5.7Z" transform="translate(-112.68 -373.99)" style="fill:#3c4040"/><path d="M268.48,412.64a.71.71,0,0,1-.56,0l-1.25-4.24-1.82,4.24a.59.59,0,0,1-.48,0l-1.83-4.24-1.25,4.24a.71.71,0,0,1-.56,0l1.52-5.06a.61.61,0,0,1,.48,0l1.89,4.35,1.87-4.35a.63.63,0,0,1,.49,0Z" transform="translate(-112.68 -373.99)" style="fill:#3c4040"/><path d="M275.45,409.32a2.23,2.23,0,0,1,1.35.4,1.44,1.44,0,0,1,.56,1.25,1.47,1.47,0,0,1-.54,1.25,2.16,2.16,0,0,1-1.34.4h-2.39v-5.05a.71.71,0,0,1,.56,0v1.75h1.8Zm-.06,2.87a1.75,1.75,0,0,0,1-.28,1.26,1.26,0,0,0,.09-1.78h0l-.09-.13a1.76,1.76,0,0,0-1-.28h-1.74v2.43h1.74Zm2.87-4.62a.71.71,0,0,1,.56,0v5.07a.71.71,0,0,1-.56,0Z" transform="translate(-112.68 -373.99)" style="fill:#3c4040"/><path d="M294.09,411.73a.4.4,0,0,1,.05.25.46.46,0,0,1-.05.27,2.86,2.86,0,0,1-1.83.58,2.72,2.72,0,1,1,0-5.44h0a2.86,2.86,0,0,1,1.83.58.68.68,0,0,1,0,.52,3,3,0,0,0-1.8-.62,2.24,2.24,0,0,0-.3,4.47h.3A3,3,0,0,0,294.09,411.73Z" transform="translate(-112.68 -373.99)" style="fill:#3c4040"/><path d="M303.64,408.17a2.8,2.8,0,1,1-1.94-.78A2.64,2.64,0,0,1,303.64,408.17Zm-3.48.34a2.38,2.38,0,0,0,0,3.19,2.2,2.2,0,0,0,3.09,0,2.38,2.38,0,0,0,0-3.19A2.2,2.2,0,0,0,300.16,408.51Z" transform="translate(-112.68 -373.99)" style="fill:#3c4040"/><path d="M312.09,407.78a1.2,1.2,0,0,1,.56,1,1.13,1.13,0,0,1-.72,1.14,1.35,1.35,0,0,1,.95,1.34,1.29,1.29,0,0,1-.61,1.14,2.61,2.61,0,0,1-1.48.4,2.92,2.92,0,0,1-1.87-.58.68.68,0,0,1,0-.25.34.34,0,0,1,0-.23,3.13,3.13,0,0,0,1.81.61,2.07,2.07,0,0,0,1.14-.29.93.93,0,0,0,.46-.84,1,1,0,0,0-.33-.82,1.51,1.51,0,0,0-.92-.27h-1.21a.43.43,0,0,1,0-.38H311a.9.9,0,0,0,1.09-.91.85.85,0,0,0-.42-.73,1.74,1.74,0,0,0-1-.28,3,3,0,0,0-1.72.61.35.35,0,0,1-.05-.23.42.42,0,0,1,.1-.21,2.78,2.78,0,0,1,1.78-.58A2.27,2.27,0,0,1,312.09,407.78Z" transform="translate(-112.68 -373.99)" style="fill:#3c4040"/><path d="M324,414a.9.9,0,0,1-.56,0v-1.36h-5.72V414a.9.9,0,0,1-.56,0v-1.84H318a2.76,2.76,0,0,0,.8-1.91l.29-2.68h3.8v4.58H324V414Zm-4.42-5.93-.23,2.19a2.88,2.88,0,0,1-.71,1.91h3.66v-4.1Z" transform="translate(-112.68 -373.99)" style="fill:#3c4040"/><path d="M332.09,408a2.24,2.24,0,0,1,.56,1.61v3a.65.65,0,0,1-.51,0v-.69a3.44,3.44,0,0,1-.93.59,3,3,0,0,1-1.22.26,2,2,0,0,1-1.39-.46,1.5,1.5,0,0,1-.52-1.19,1.48,1.48,0,0,1,.52-1.18,2.07,2.07,0,0,1,1.4-.45,3,3,0,0,1,1.21.25,3.39,3.39,0,0,1,.9.54v-.73a1.55,1.55,0,0,0-1.73-1.7,3.09,3.09,0,0,0-1.78.61.39.39,0,0,1-.05-.25.45.45,0,0,1,.05-.26,2.91,2.91,0,0,1,1.86-.57A2.18,2.18,0,0,1,332.09,408Zm-3,2.31A1.18,1.18,0,0,0,329,412h0l.08,0a1.56,1.56,0,0,0,1.07.34,2.74,2.74,0,0,0,1.19-.28,2.68,2.68,0,0,0,.82-.54v-.76a2.68,2.68,0,0,0-.82-.54,2.74,2.74,0,0,0-1.26-.28,1.56,1.56,0,0,0-1,.34Z" transform="translate(-112.68 -373.99)" style="fill:#3c4040"/><path d="M342.09,408.22a2.33,2.33,0,0,1,.51,1.94h-4.51a2.12,2.12,0,0,0,.65,1.6,2.29,2.29,0,0,0,1.63.59,3.05,3.05,0,0,0,1.81-.62.68.68,0,0,1,0,.52,2.83,2.83,0,0,1-1.86.58,2.78,2.78,0,0,1-2-.75,2.62,2.62,0,0,1-.77-2,2.69,2.69,0,0,1,.75-2,2.57,2.57,0,0,1,1.94-.77A2.34,2.34,0,0,1,342.09,408.22Zm-3.35.16a2.12,2.12,0,0,0-.64,1.41h4a1.83,1.83,0,0,0-.52-1.39,1.86,1.86,0,0,0-1.39-.56,2,2,0,0,0-1.47.54h0Z" transform="translate(-112.68 -373.99)" style="fill:#3c4040"/><path d="M354.71,412.64a.71.71,0,0,1-.56,0l-1.25-4.24-1.81,4.24a.59.59,0,0,1-.48,0l-1.83-4.24-1.25,4.24a.71.71,0,0,1-.56,0l1.52-5.06a.61.61,0,0,1,.48,0l1.89,4.35,1.87-4.35a.63.63,0,0,1,.49,0Z" transform="translate(-112.68 -373.99)" style="fill:#3c4040"/><path d="M369.51,407.57a.63.63,0,0,1,0,.49h-2.12v4.58a.74.74,0,0,1-.57,0v-4.57h-2.11a.63.63,0,0,1,0-.49h4.8Z" transform="translate(-112.68 -373.99)" style="fill:#3c4040"/><path d="M378.6,408.16a3,3,0,0,1,0,3.9,2.39,2.39,0,0,1-1.85.77,2.6,2.6,0,0,1-2-.9v2.77a.71.71,0,0,1-.56,0v-7.13a.7.7,0,0,1,.52,0v.73a2.58,2.58,0,0,1,2-.92A2.39,2.39,0,0,1,378.6,408.16Zm-.42,3.55a2.53,2.53,0,0,0,0-3.2,2,2,0,0,0-1.52-.63,2.18,2.18,0,0,0-1.13.3,3,3,0,0,0-.78.63v2.61a3,3,0,0,0,.78.63,2.17,2.17,0,0,0,1.13.3A2,2,0,0,0,378.18,411.71Z" transform="translate(-112.68 -373.99)" style="fill:#3c4040"/><path d="M388.49,408.22a2.33,2.33,0,0,1,.51,1.94h-4.53a2.12,2.12,0,0,0,.65,1.6,2.29,2.29,0,0,0,1.63.59,3.05,3.05,0,0,0,1.81-.62.68.68,0,0,1,0,.52,2.83,2.83,0,0,1-1.86.58,2.78,2.78,0,0,1-2-.75,2.62,2.62,0,0,1-.77-2,2.69,2.69,0,0,1,.75-2,2.57,2.57,0,0,1,1.94-.77A2.34,2.34,0,0,1,388.49,408.22Zm-3.35.16a2.13,2.13,0,0,0-.64,1.41h4a1.83,1.83,0,0,0-.5-1.39,1.86,1.86,0,0,0-1.39-.56,2,2,0,0,0-1.5.54h0Z" transform="translate(-112.68 -373.99)" style="fill:#3c4040"/><path d="M398.09,407.57a.75.75,0,0,1,.57,0v5.07a.75.75,0,0,1-.57,0V410.3h-3.7v2.34a.71.71,0,0,1-.56,0v-5.07a.71.71,0,0,1,.56,0v2.27h3.7Z" transform="translate(-112.68 -373.99)" style="fill:#3c4040"/><path d="M410.09,414a.9.9,0,0,1-.56,0v-1.36h-5.72V414a.9.9,0,0,1-.56,0v-1.84h.84a2.75,2.75,0,0,0,.8-1.91l.28-2.67H409v4.58h1.12V414Zm-4.42-5.93-.23,2.19a2.88,2.88,0,0,1-.71,1.91h3.66v-4.1Z" transform="translate(-112.68 -373.99)" style="fill:#3c4040"/><path d="M417.09,409.32a2.23,2.23,0,0,1,1.35.4A1.44,1.44,0,0,1,419,411a1.47,1.47,0,0,1-.54,1.25,2.16,2.16,0,0,1-1.34.4h-2.4v-5.08a.71.71,0,0,1,.56,0v1.75Zm-.09,2.87a1.75,1.75,0,0,0,1-.28,1.26,1.26,0,0,0,.09-1.78h0L418,410a1.76,1.76,0,0,0-1-.28h-1.74v2.43H417Zm2.87-4.62a.71.71,0,0,1,.56,0v5.07a.71.71,0,0,1-.56,0Z" transform="translate(-112.68 -373.99)" style="fill:#3c4040"/><path d="M209,393.63v-3l-3.37-2a.79.79,0,0,0-1.29.74v11.47a.79.79,0,0,0,1.29.74l3.37-2v-6Z" transform="translate(-112.68 -373.99)" style="fill:#c6d552"/><path d="M220.22,394.37l-3.68-2.13L214,390.75l-3.68-2.13a.79.79,0,0,0-1.29.74v1.2l.31.18,2.58,1.49,3.68,2.13a.79.79,0,0,1,0,1.49L211.88,398l-2.58,1.49-.31.18v1.2a.79.79,0,0,0,1.29.74l3.72-2.16,2.54-1.45,3.68-2.12a.79.79,0,0,0,0-1.51Z" transform="translate(-112.68 -373.99)" style="fill:#c6d552"/><path d="M211.88,398l3.68-2.14a.79.79,0,0,0,0-1.49l-3.68-2.11-2.58-1.49-.3-.2v9.07l.31-.18Z" transform="translate(-112.68 -373.99)" style="fill:#8ea139"/><path d="M228.26,392.84V401h10.83c-1.45,3.89-5,6.26-10.38,6.26-5.67,0-9.77-2.62-11.64-6.65l-1.07.61-6.88,4c3.57,6.56,10.67,11.05,19.48,11.05,11.37,0,20-7.54,20-20v-3.43Z" transform="translate(-112.68 -373.99)" style="fill:#f06437"/><path d="M216,389.08l1.07.64a11.52,11.52,0,0,1,10.8-6.72c4.58,0,8.24,2.09,9.92,4.75l7.89-4.52A20.77,20.77,0,0,0,227.93,374a21.12,21.12,0,0,0-18.8,11.13Z" transform="translate(-112.68 -373.99)" style="fill:#f06437"/><g style="isolation:isolate"><path d="M112.68,390.65V379.91h4.05a9.78,9.78,0,0,1,1.63.1,3.23,3.23,0,0,1,1.33.5,2.63,2.63,0,0,1,.86,1,3.5,3.5,0,0,1-.55,3.78,4.18,4.18,0,0,1-3.15.95H114.1v4.37ZM114.1,385h2.78a2.94,2.94,0,0,0,2-.51,1.83,1.83,0,0,0,.58-1.44,1.94,1.94,0,0,0-.34-1.15,1.59,1.59,0,0,0-.9-.63,6.06,6.06,0,0,0-1.33-.1H114.1Z" transform="translate(-112.68 -373.99)" style="fill:#9f9f9f"/></g><g style="isolation:isolate"><path d="M126.75,389.69a4.91,4.91,0,0,1-1.41.88,4.09,4.09,0,0,1-1.45.26,2.83,2.83,0,0,1-2-.63,2.07,2.07,0,0,1-.69-1.6,2.13,2.13,0,0,1,.26-1,2.15,2.15,0,0,1,.68-.76,3.22,3.22,0,0,1,.95-.43,9.63,9.63,0,0,1,1.17-.2,12.05,12.05,0,0,0,2.35-.45c0-.18,0-.29,0-.34a1.46,1.46,0,0,0-.37-1.13,2.21,2.21,0,0,0-1.5-.45,2.33,2.33,0,0,0-1.37.33,2,2,0,0,0-.66,1.15l-1.29-.18a3.19,3.19,0,0,1,.58-1.34,2.54,2.54,0,0,1,1.16-.78,5.21,5.21,0,0,1,1.77-.27,4.67,4.67,0,0,1,1.62.23,2.13,2.13,0,0,1,.92.59,2.07,2.07,0,0,1,.41.9,7.41,7.41,0,0,1,.07,1.21v1.76a18.55,18.55,0,0,0,.08,2.33,2.92,2.92,0,0,0,.33.93H127A2.8,2.8,0,0,1,126.75,389.69Zm-.11-2.95a9.56,9.56,0,0,1-2.15.5,5.09,5.09,0,0,0-1.15.26,1.16,1.16,0,0,0-.52.43,1.16,1.16,0,0,0,.22,1.5,1.72,1.72,0,0,0,1.17.35,2.71,2.71,0,0,0,1.35-.33,2,2,0,0,0,.87-.91,3.18,3.18,0,0,0,.21-1.32Z" transform="translate(-112.68 -373.99)" style="fill:#9f9f9f"/><path d="M131.57,387.13v-1a7.42,7.42,0,0,0,1.14-.07,1.07,1.07,0,0,0,.58-.35,1,1,0,0,0,.27-.73,1.09,1.09,0,0,0-.35-.85,1.33,1.33,0,0,0-.92-.32,1.62,1.62,0,0,0-1.56,1.31l-1.25-.21a3,3,0,0,1,4.78-1.51A2.18,2.18,0,0,1,135,385a1.71,1.71,0,0,1-.92,1.52,2.07,2.07,0,0,1,1.17,2,2.13,2.13,0,0,1-.76,1.7,3.17,3.17,0,0,1-2.13.65q-2.66,0-3.08-2.37l1.24-.26a2,2,0,0,0,.69,1.16,1.84,1.84,0,0,0,1.18.41,1.65,1.65,0,0,0,1.11-.38,1.27,1.27,0,0,0,.17-1.75,1.18,1.18,0,0,0-.59-.42,5.1,5.1,0,0,0-1.14-.08Z" transform="translate(-112.68 -373.99)" style="fill:#9f9f9f"/><path d="M136.73,393.63V382.87h1.2v1a3,3,0,0,1,1-.89,2.63,2.63,0,0,1,1.3-.3,3.07,3.07,0,0,1,1.76.51,3.15,3.15,0,0,1,1.15,1.45,5.29,5.29,0,0,1,.39,2,5.21,5.21,0,0,1-.43,2.15,3.24,3.24,0,0,1-1.25,1.46,3.2,3.2,0,0,1-1.72.51,2.48,2.48,0,0,1-1.18-.28,2.69,2.69,0,0,1-.86-.7v3.79Zm1.19-6.83a3.38,3.38,0,0,0,.61,2.22,1.86,1.86,0,0,0,1.47.72,1.91,1.91,0,0,0,1.5-.74,3.53,3.53,0,0,0,.63-2.3,3.44,3.44,0,0,0-.61-2.23,1.84,1.84,0,0,0-1.46-.74,1.9,1.9,0,0,0-1.49.79A3.52,3.52,0,0,0,137.92,386.8Z" transform="translate(-112.68 -373.99)" style="fill:#9f9f9f"/><path d="M150.15,389.69a4.91,4.91,0,0,1-1.41.88,4.09,4.09,0,0,1-1.45.26,2.83,2.83,0,0,1-2-.63,2.07,2.07,0,0,1-.69-1.6,2.13,2.13,0,0,1,.26-1,2.15,2.15,0,0,1,.68-.76,3.22,3.22,0,0,1,.95-.43,9.63,9.63,0,0,1,1.17-.2,12.05,12.05,0,0,0,2.35-.45c0-.18,0-.29,0-.34a1.46,1.46,0,0,0-.37-1.13,2.21,2.21,0,0,0-1.5-.45,2.33,2.33,0,0,0-1.37.33,2,2,0,0,0-.66,1.15l-1.29-.18a3.19,3.19,0,0,1,.58-1.34,2.54,2.54,0,0,1,1.16-.78,5.21,5.21,0,0,1,1.77-.27,4.67,4.67,0,0,1,1.62.23,2.13,2.13,0,0,1,.92.59,2.07,2.07,0,0,1,.41.9,7.41,7.41,0,0,1,.07,1.21v1.76a18.55,18.55,0,0,0,.08,2.33,2.92,2.92,0,0,0,.33.93h-1.38A2.8,2.8,0,0,1,150.15,389.69Zm-.11-2.95a9.56,9.56,0,0,1-2.15.5,5.09,5.09,0,0,0-1.15.26,1.16,1.16,0,0,0-.52.43,1.16,1.16,0,0,0,.22,1.5,1.72,1.72,0,0,0,1.17.35,2.71,2.71,0,0,0,1.35-.33,2,2,0,0,0,.87-.91,3.18,3.18,0,0,0,.21-1.32Z" transform="translate(-112.68 -373.99)" style="fill:#9f9f9f"/><path d="M159.11,379.66l1.16,0a2,2,0,0,1-.35,1.09,1.22,1.22,0,0,1-.69.4,9.87,9.87,0,0,1-1.65.09,5.34,5.34,0,0,0-2.23.31,1.81,1.81,0,0,0-.85,1,5.56,5.56,0,0,0-.29,1.78,3.41,3.41,0,0,1,1.16-1.11,3,3,0,0,1,1.5-.37,3.36,3.36,0,0,1,2.53,1.05,4,4,0,0,1,1,2.85,4.41,4.41,0,0,1-.51,2.23,4.06,4.06,0,0,1-1.2,1.35,4,4,0,0,1-4-.16,4.09,4.09,0,0,1-1.18-1.62,10,10,0,0,1-.41-3.44q0-3.08,1-4.15a4.31,4.31,0,0,1,3.21-1.07,12.87,12.87,0,0,0,1.53,0A.3.3,0,0,0,159.11,379.66Zm-.07,7.08a3.26,3.26,0,0,0-.58-2,1.9,1.9,0,0,0-1.62-.78,2,2,0,0,0-1.68.82,3.66,3.66,0,0,0-.59,2.19,3,3,0,0,0,.66,2.07,2.1,2.1,0,0,0,1.61.72,1.89,1.89,0,0,0,1.59-.83A3.63,3.63,0,0,0,159,386.73Z" transform="translate(-112.68 -373.99)" style="fill:#9f9f9f"/></g><g style="isolation:isolate"><path d="M162.07,386.76a4,4,0,0,1,1.2-3.2,3.62,3.62,0,0,1,2.45-.86,3.49,3.49,0,0,1,2.62,1.05,4,4,0,0,1,1,2.9,5.14,5.14,0,0,1-.45,2.36,3.18,3.18,0,0,1-1.31,1.34,3.82,3.82,0,0,1-1.88.48,3.5,3.5,0,0,1-2.64-1A4.18,4.18,0,0,1,162.07,386.76Zm1.35,0a3.31,3.31,0,0,0,.65,2.24,2.17,2.17,0,0,0,3.27,0,3.39,3.39,0,0,0,.65-2.28,3.21,3.21,0,0,0-.66-2.19,2.17,2.17,0,0,0-3.27,0A3.3,3.3,0,0,0,163.42,386.76Z" transform="translate(-112.68 -373.99)" style="fill:#9f9f9f"/></g><g style="isolation:isolate"><path d="M170,382.87h6.32V384h-2.5v6.69h-1.31V384H170Z" transform="translate(-112.68 -373.99)" style="fill:#9f9f9f"/><path d="M177.61,382.87h1.32v3.36a1.27,1.27,0,0,0,.88-.24,5.29,5.29,0,0,0,.74-1.41,5.59,5.59,0,0,1,.63-1.22,1.2,1.2,0,0,1,.56-.4,3.57,3.57,0,0,1,1-.1H183V384h-.37a1,1,0,0,0-.67.15,3.89,3.89,0,0,0-.47,1,4,4,0,0,1-.55,1.05,2.22,2.22,0,0,1-.77.53,3.19,3.19,0,0,1,1.67,1.58l1.44,2.41h-1.45l-1.41-2.41a3.28,3.28,0,0,0-.75-1,1.28,1.28,0,0,0-.77-.23v3.6h-1.32Z" transform="translate(-112.68 -373.99)" style="fill:#9f9f9f"/><path d="M189.59,389.69a4.91,4.91,0,0,1-1.41.88,4.09,4.09,0,0,1-1.45.26,2.83,2.83,0,0,1-2-.63,2.07,2.07,0,0,1-.69-1.6,2.13,2.13,0,0,1,.26-1,2.15,2.15,0,0,1,.68-.76,3.22,3.22,0,0,1,.95-.43,9.63,9.63,0,0,1,1.17-.2,12.05,12.05,0,0,0,2.35-.45c0-.18,0-.29,0-.34a1.46,1.46,0,0,0-.37-1.13,2.21,2.21,0,0,0-1.5-.45,2.33,2.33,0,0,0-1.37.33,2,2,0,0,0-.66,1.15l-1.29-.18a3.19,3.19,0,0,1,.58-1.34A2.54,2.54,0,0,1,186,383a5.21,5.21,0,0,1,1.77-.27,4.67,4.67,0,0,1,1.62.23,2.13,2.13,0,0,1,.92.59,2.07,2.07,0,0,1,.41.9,7.41,7.41,0,0,1,.07,1.21v1.76a18.55,18.55,0,0,0,.08,2.33,2.92,2.92,0,0,0,.33.93h-1.38A2.8,2.8,0,0,1,189.59,389.69Zm-.11-2.95a9.56,9.56,0,0,1-2.15.5,5.09,5.09,0,0,0-1.15.26,1.16,1.16,0,0,0-.52.43,1.16,1.16,0,0,0,.22,1.5,1.72,1.72,0,0,0,1.17.35,2.71,2.71,0,0,0,1.35-.33,2,2,0,0,0,.87-.91,3.18,3.18,0,0,0,.21-1.32Z" transform="translate(-112.68 -373.99)" style="fill:#9f9f9f"/></g><g style="isolation:isolate"><path d="M151.12,405.8l1.3.17a3.37,3.37,0,0,1-1.09,2.1,3.17,3.17,0,0,1-2.15.76,3.34,3.34,0,0,1-2.57-1,4.23,4.23,0,0,1-1-3,5.42,5.42,0,0,1,.42-2.21,2.91,2.91,0,0,1,1.27-1.42,3.76,3.76,0,0,1,1.86-.47,3.23,3.23,0,0,1,2.07.64,2.94,2.94,0,0,1,1,1.82l-1.28.2a2.13,2.13,0,0,0-.65-1.18,1.68,1.68,0,0,0-1.12-.4,2,2,0,0,0-1.62.71,3.39,3.39,0,0,0-.62,2.26,3.5,3.5,0,0,0,.6,2.28,2,2,0,0,0,1.57.71,1.84,1.84,0,0,0,1.3-.48A2.36,2.36,0,0,0,151.12,405.8Z" transform="translate(-112.68 -373.99)" style="fill:#9f9f9f"/><path d="M158.62,407.69a4.91,4.91,0,0,1-1.41.88,4.09,4.09,0,0,1-1.45.26,2.83,2.83,0,0,1-2-.63,2.07,2.07,0,0,1-.69-1.6,2.13,2.13,0,0,1,.26-1,2.15,2.15,0,0,1,.68-.76,3.22,3.22,0,0,1,.95-.43,9.63,9.63,0,0,1,1.17-.2,12.05,12.05,0,0,0,2.35-.45c0-.18,0-.29,0-.34a1.46,1.46,0,0,0-.37-1.13,2.21,2.21,0,0,0-1.5-.45,2.33,2.33,0,0,0-1.37.33,2,2,0,0,0-.66,1.15l-1.29-.18a3.19,3.19,0,0,1,.58-1.34,2.54,2.54,0,0,1,1.16-.78,5.21,5.21,0,0,1,1.77-.27,4.67,4.67,0,0,1,1.62.23,2.13,2.13,0,0,1,.92.59,2.07,2.07,0,0,1,.41.9,7.41,7.41,0,0,1,.07,1.21v1.76a18.55,18.55,0,0,0,.08,2.33,2.92,2.92,0,0,0,.33.93h-1.38A2.8,2.8,0,0,1,158.62,407.69Zm-.11-2.95a9.56,9.56,0,0,1-2.15.5,5.09,5.09,0,0,0-1.15.26,1.16,1.16,0,0,0-.52.43,1.16,1.16,0,0,0,.22,1.5,1.72,1.72,0,0,0,1.17.35,2.71,2.71,0,0,0,1.35-.33,2,2,0,0,0,.87-.91,3.18,3.18,0,0,0,.21-1.32Z" transform="translate(-112.68 -373.99)" style="fill:#9f9f9f"/><path d="M161.89,400.87h1.32v5.93l3.65-5.93h1.42v7.78H167v-5.9l-3.65,5.9h-1.42Zm4.58-2.94h.9a2.12,2.12,0,0,1-.67,1.41,2.18,2.18,0,0,1-1.49.49,2.21,2.21,0,0,1-1.5-.49,2.12,2.12,0,0,1-.67-1.41h.9a1.23,1.23,0,0,0,.41.74,1.26,1.26,0,0,0,.82.25,1.44,1.44,0,0,0,.9-.24A1.22,1.22,0,0,0,166.47,397.93Z" transform="translate(-112.68 -373.99)" style="fill:#9f9f9f"/></g><g style="isolation:isolate"><path d="M169.48,400.87h6.32V402h-2.5v6.69H172V402h-2.5Z" transform="translate(-112.68 -373.99)" style="fill:#9f9f9f"/></g><g style="isolation:isolate"><path d="M177.13,404.76a4,4,0,0,1,1.2-3.2,3.62,3.62,0,0,1,2.45-.86,3.49,3.49,0,0,1,2.62,1.05,4,4,0,0,1,1,2.9A5.14,5.14,0,0,1,184,407a3.18,3.18,0,0,1-1.31,1.34,3.82,3.82,0,0,1-1.88.48,3.5,3.5,0,0,1-2.64-1A4.18,4.18,0,0,1,177.13,404.76Zm1.35,0a3.31,3.31,0,0,0,.65,2.24,2.17,2.17,0,0,0,3.27,0,3.39,3.39,0,0,0,.65-2.28,3.21,3.21,0,0,0-.66-2.19,2.17,2.17,0,0,0-3.27,0A3.3,3.3,0,0,0,178.48,404.76Z" transform="translate(-112.68 -373.99)" style="fill:#9f9f9f"/><path d="M186,400.87h3a5.53,5.53,0,0,1,1.67.19,2,2,0,0,1,.94.69,1.87,1.87,0,0,1,.39,1.19,2,2,0,0,1-.23,1,1.88,1.88,0,0,1-.69.69,1.82,1.82,0,0,1,.91.69,2,2,0,0,1,.36,1.19,2.09,2.09,0,0,1-.79,1.64,3.45,3.45,0,0,1-2.09.54H186Zm1.32,3.27h1.41a5,5,0,0,0,1.16-.09,1.21,1.21,0,0,0,.56-.36.91.91,0,0,0,.25-.64.9.9,0,0,0-.44-.86,3.3,3.3,0,0,0-1.49-.24h-1.45Zm0,3.42H189a3.17,3.17,0,0,0,1.54-.26,1,1,0,0,0,.44-.9,1.12,1.12,0,0,0-.24-.69,1,1,0,0,0-.63-.4,6.48,6.48,0,0,0-1.25-.08h-1.6Z" transform="translate(-112.68 -373.99)" style="fill:#9f9f9f"/></g></svg>