<?xml version="1.0" encoding="UTF-8" standalone="no" ?>
<!DOCTYPE svg PUBLIC "-//W3C//DTD SVG 1.1//EN" "http://www.w3.org/Graphics/SVG/1.1/DTD/svg11.dtd">
<svg xmlns="http://www.w3.org/2000/svg" xmlns:xlink="http://www.w3.org/1999/xlink" version="1.1" width="500" height="500" viewBox="0 0 500 500" xml:space="preserve">
<desc>Created with Fabric.js 3.6.3</desc>
<defs>
</defs>
<g transform="matrix(1,0,0,1,329.2833333333333,243.65277141954297)" style=""  ><path fill="#FF358B" opacity="1" d="M-129.31-16.07L-134.78 0.31L-140.21-16.07L-151.23-16.07C-151.46-16.07-151.57-15.81-151.57-15.50C-151.57-15.16-151.46-14.94-151.23-14.94L-148.44-14.94L-148.44 10.72L-151.23 10.72C-151.46 10.72-151.57 10.99-151.57 11.29C-151.57 11.63-151.46 11.85-151.23 11.85L-144.32 11.85C-144.10 11.85-143.98 11.59-143.98 11.29C-143.98 10.99-144.10 10.72-144.32 10.72L-147.31 10.72L-147.31-13.43L-138.89 11.82C-138.89 11.93-138.36 12.01-138.17 12.01C-138.10 12.01-137.49 11.93-137.49 11.82L-129.08-13.28L-129.08 10.72L-131.91 10.72C-132.14 10.72-132.25 10.99-132.25 11.29C-132.25 11.63-132.14 11.85-131.91 11.85L-118.70 11.85C-118.48 11.85-118.36 11.59-118.36 11.29C-118.36 10.99-118.48 10.72-118.70 10.72L-121.53 10.72L-121.53-14.94L-118.70-14.94C-118.48-14.94-118.36-15.20-118.36-15.50C-118.36-15.81-118.48-16.07-118.70-16.07Z"/><path fill="#FF358B" opacity="1" d="M-99.04 16.95C-99.04 19.97-101.27 20.53-103.72 20.53C-105.61 20.53-107.61 20.04-108.78 19.51L-108.78 19.36C-106.82 19.14-105.91 17.78-105.91 16.38C-105.91 14.12-107.61 12.99-109.31 12.99C-111.00 12.99-112.70 14.12-112.70 16.34C-112.70 19.29-108.06 21.51-103.04 21.51C-97.76 21.51-92.25 19.17-92.25 13.10L-92.25-7.73C-92.25-7.99-92.40-8.18-92.66-8.18L-99.04-8.18L-99.04 6.91C-99.04 9.48-100.74 10.76-102.44 10.76C-104.14 10.76-105.83 9.48-105.83 6.91L-105.83-7.73C-105.83-7.99-106.02-8.18-106.25-8.18L-114.36-8.18C-114.55-8.18-114.66-7.92-114.66-7.69C-114.66-7.47-114.55-7.24-114.36-7.24L-112.63-7.24L-112.63 4.76C-112.63 9.44-108.63 12.23-104.55 12.23C-102.59 12.23-100.70 11.63-99.04 10.31Z"/><path fill="#FF358B" opacity="1" d="M-78.93-9.28L-78.93-17.81C-78.93-17.99-78.97-18.26-79.31-18.26L-87.87-18.26C-88.06-18.26-88.17-17.99-88.17-17.77C-88.17-17.54-88.06-17.32-87.87-17.32L-85.72-17.32L-85.72 12.23L-84.63 12.23C-84.44 12.23-79.72 9.59-79.72 9.59C-78.10 11.21-76.36 12.27-73.76 12.27C-68.10 12.27-64.97 6.57-64.97 2.12C-64.97-3.16-68.06-8.52-73.76-8.52C-75.50-8.52-77.27-8.15-79.31-6.33ZM-79.31-2.45C-79.31-5.50-77.53-7.05-75.72-7.05C-73.95-7.05-72.14-5.50-72.14-2.45L-72.14 6.12C-72.14 9.25-73.95 10.80-75.72 10.80C-77.53 10.80-79.31 9.21-79.31 6.08Z"/><path fill="#FF358B" opacity="1" d="M-52.40-17.84C-52.40-18.15-52.67-18.26-53.01-18.26L-61.35-18.26C-61.53-18.26-61.65-17.99-61.65-17.77C-61.65-17.54-61.53-17.32-61.35-17.32L-59.19-17.32L-59.19 7.70C-59.19 10.72-56.51 12.23-53.84 12.23C-51.16 12.23-48.48 10.72-48.48 7.70C-48.48 7.48-48.70 7.36-48.93 7.36C-49.16 7.36-49.42 7.48-49.42 7.70C-49.42 9.21-50.18 9.97-50.93 9.97C-51.68 9.97-52.40 9.21-52.40 7.70Z"/><path fill="#FF358B" opacity="1" d="M-24.33 1.85C-24.33-4.18-28.40-8.56-35.08-8.56C-41.76-8.56-45.84-4.18-45.84 1.85C-45.84 7.89-41.76 12.23-35.08 12.23C-28.40 12.23-24.33 7.89-24.33 1.85ZM-31.50 3.67C-31.50 8.61-31.99 11.40-35.08 11.40C-38.18 11.40-38.67 8.61-38.67 3.67L-38.67 0.01C-38.67-4.94-38.18-7.73-35.08-7.73C-31.99-7.73-31.50-4.94-31.50 0.01Z"/><path fill="#FF358B" opacity="1" d="M0.96 1.85C0.96-4.18-3.12-8.56-9.80-8.56C-16.48-8.56-20.55-4.18-20.55 1.85C-20.55 7.89-16.48 12.23-9.80 12.23C-3.12 12.23 0.96 7.89 0.96 1.85ZM-6.21 3.67C-6.21 8.61-6.70 11.40-9.80 11.40C-12.89 11.40-13.38 8.61-13.38 3.67L-13.38 0.01C-13.38-4.94-12.89-7.73-9.80-7.73C-6.70-7.73-6.21-4.94-6.21 0.01Z"/><path fill="#FF358B" opacity="1" d="M32.84-4.56L32.84 7.70C32.84 10.72 35.52 12.23 38.20 12.23C40.88 12.23 43.56 10.72 43.56 7.70C43.56 7.48 43.33 7.36 43.11 7.36C42.88 7.36 42.61 7.48 42.61 7.70C42.61 9.21 41.86 9.97 41.11 9.97C40.35 9.97 39.63 9.21 39.63 7.70L39.63-1.66C39.63-6.79 35.71-8.56 32.28-8.56C29.56-8.56 27.33-7.32 25.63-5.39C24.24-7.69 21.60-8.56 19.22-8.56C16.65-8.56 14.80-7.62 13.45-6.33L13.11-6.33L13.11-7.73C13.11-7.99 12.92-8.18 12.69-8.18L4.58-8.18C4.39-8.18 4.28-7.92 4.28-7.69C4.28-7.47 4.39-7.24 4.58-7.24L6.73-7.24L6.73 11.85L13.48 11.85L13.48-5.13C14.73-6.45 15.97-7.24 17.52-7.24C18.88-7.24 19.79-6.33 19.79-4.56L19.79 11.85L26.58 11.85L26.58-4.94C27.78-6.18 28.99-7.24 30.58-7.24C31.94-7.24 32.84-6.33 32.84-4.56Z"/><path fill="#FF358B" opacity="1" d="M62.88-4.45C62.88-7.01 59.03-8.56 55.03-8.56C49.86-8.56 46.46-6.15 46.46-2.56C46.46 3.59 57.29 5.36 57.29 8.76C57.29 10.87 55.44 11.36 53.48 11.36C52.46 11.36 51.44 11.25 50.65 11.14C51.78 10.46 52.24 9.36 52.24 8.27C52.24 6.12 50.61 5.02 49.03 5.02C47.41 5.02 45.82 6.12 45.82 8.23C45.82 11.14 49.63 12.23 53.67 12.23C58.39 12.23 63.44 10.31 63.44 5.93C63.44-0.45 52.20 0.04 52.20-5.16C52.20-7.16 53.48-7.69 55.18-7.69C56.12-7.69 57.18-7.54 58.20-7.35C57.03-6.71 56.54-5.65 56.54-4.45C56.54-2.30 58.12-1.20 59.71-1.20C61.44-1.20 62.88-2.41 62.88-4.45Z"/></g>
<g transform="matrix(1,0,0,1,272.2167714197149,276.29593209492907)" style=""  ><path fill="#737373" opacity="1" d="M-87.81 8.15L-87.75 8.15C-87.90 7.45-88.04 6.77-88.22 6.07C-88.24 5.92-88.39 5.82-88.48 5.68C-88.90 6.34-88.43 6.65-89.00 7.70C-89.21 7.57-89.50 7.48-89.57 7.31C-90.14 6.04-90.74 4.76-91.27 3.47C-91.71 2.42-92.03 1.36-92.51 0.36C-92.63 0.12-92.68-0.10-92.68-0.29C-92.68-0.58-92.56-0.83-92.34-1.14C-91.23-2.62-90.13-4.16-89.06-5.71C-88.95-5.85-88.99-6.07-88.95-6.27C-89.29-6.27-89.55-6.34-89.89-6.00C-90.82-4.72-91.78-3.40-92.74-2.12C-92.83-1.95-93.05-1.87-93.22-1.78C-93.25-1.97-93.32-2.22-93.32-2.39C-93.32-2.46-93.29-2.53-93.29-2.58C-93.08-3.60-92.90-4.59-92.68-5.59C-92.66-5.66-92.66-5.74-92.66-5.81C-92.66-6.12-92.80-6.42-93.10-6.42C-93.39-6.42-94.02-5.56-94.02-5.45C-94.09-5.20-94.10-4.94-94.12-4.72C-94.56-2.55-94.97-0.37-95.36 1.82C-95.43 2.04-95.92 3.69-95.92 4.59C-95.92 5.12-95.74 5.20-95.38 5.20C-94.41 5.20-94.27 2.86-94.05 1.69C-94.00 1.38-94.10 0.90-93.66 0.89C-93.51 0.89-93.25 1.29-93.15 1.58C-92.25 4.24-91.32 7.45-89.21 9.25C-89.02 9.42-88.82 9.49-88.63 9.49C-88.17 9.49-87.81 9.06-87.81 8.42Z"/><path fill="#737373" opacity="1" d="M-85.47 4.42C-85.43 2.82-85.43 1.38-85.43-0.07C-85.43-0.24-85.59-0.54-85.72-0.54C-85.94-0.54-86.30-0.27-86.44 0.05L-88.95 4.32C-89.09 4.56-89.16 4.83-89.28 5.07C-88.26 4.47-87.75 3.71-87.00 2.91C-86.88 2.82-86.74 2.79-86.64 2.74C-86.59 2.86-86.52 3.01-86.52 3.13C-86.52 3.52-86.56 3.88-86.56 4.25C-86.56 4.58-86.37 4.75-86.11 4.75C-85.83 4.75-85.64 4.54-85.47 4.42Z"/><path fill="#737373" opacity="1" d="M-85.08 10.59C-84.96 10.63-84.86 10.63-84.75 10.63C-83.58 10.63-82.39 9.06-82.02 7.79C-81.52 6.07-81.15 4.32-80.79 2.59C-80.61 1.65-80.44 0.53-80.45-0.44C-80.45-0.75-80.62-0.98-81.05-0.98C-81.34-0.98-81.51-0.85-81.61-0.51C-81.81 0.10-82.09 0.72-82.36 1.31C-82.46 1.53-82.65 1.63-82.83 1.79C-82.90 1.63-83.05 1.41-83.09 1.23C-83.16 0.41-83.16-0.44-83.26-1.26C-83.28-1.44-83.48-1.61-83.63-1.78L-84.01-1.29C-84.02-1.26-84.04-1.20-84.04-1.15C-84.04 0.72-83.75 2.67-82.87 2.67C-82.63 2.67-82.34 2.45-82.03 2.30C-82.02 2.42-81.97 2.54-81.97 2.67C-81.97 3.08-82.15 3.62-82.26 4.03C-82.61 5.32-82.90 6.63-83.38 7.91C-83.79 8.98-84.38 9.47-85.23 9.47C-85.59 9.45-86.01 9.39-86.45 9.20L-87.78 8.67C-87.90 8.62-88.02 8.66-88.15 8.62C-88.12 8.77-88.15 8.96-88.09 9.03C-87.34 9.81-86.61 10.61-85.37 10.61C-85.28 10.61-85.18 10.61-85.08 10.59Z"/><path fill="#737373" opacity="1" d="M-73.72-5.13C-74.74-5.20-75.80-5.23-76.83-5.23C-77.94-5.18-80.10-5.40-80.10-3.72C-80.10-3.04-79.64-2.56-78.94-2.26C-77.60-1.58-76.85-0.59-76.51 0.73C-76.97 0.19-77.02 0.26-77.27-0.01C-77.67-0.41-77.90-0.71-78.31-0.71C-79.08-0.71-79.31 0.80-79.31 1.67C-79.31 2.47-79.14 3.27-78.82 4.08C-78.75 4.39-78.26 4.63-77.94 4.88C-77.80 4.63-77.60 4.44-77.48 4.15C-77.48 3.86-78.24 3.69-78.29 3.35C-78.52 2.71-78.67 2.03-78.67 1.38C-78.67 1.02-78.62 0.68-78.52 0.34C-78.48 0.19-78.29 0.09-78.18-0.05C-78.04 0.09-77.82 0.21-77.75 0.34C-77.24 1.52-76.92 2.69-76.92 3.90C-76.92 4.07-76.93 4.22-76.93 4.37C-76.93 4.71-76.63 5.46-76.25 5.46C-75.54 5.46-75.63 4.00-75.54 3.22C-75.54 2.79-75.61 2.42-75.73 2.09C-75.68 1.97-75.63 1.84-75.63 1.72C-75.63 0.17-76.24-1.68-77.36-2.75C-77.72-3.09-78.11-3.35-78.52-3.60C-77.80-3.60-77.12-3.72-76.44-3.72C-75.54-3.72-74.62-3.62-73.72-3.62C-73.48-3.62-73.36-3.99-73.36-4.38C-73.36-4.76-73.48-5.11-73.72-5.13Z"/><path fill="#737373" opacity="1" d="M-69.45-0.07C-69.52-0.05-69.59-0.03-69.64-0.03C-69.81-0.03-69.90-0.15-69.90-0.37C-69.90-1.15-69.62-1.97-69.62-2.79C-69.62-3.07-69.81-3.28-70.05-3.28C-70.75-3.28-70.83-1.17-70.97-0.07C-71.04 0.44-71.41 0.58-72.09 0.58C-72.50 0.58-72.68 0.53-72.68 0.26C-72.68 0.19-72.67 0.10-72.65 0.02C-72.53-0.59-72.46-1.22-72.40-1.87C-72.40-2.04-72.60-2.29-72.77-2.29C-72.85-2.29-72.94-2.28-73.01-2.24C-73.23-1.83-73.50-1.43-73.76-0.93C-73.57-0.92-73.50-0.80-73.50-0.58C-73.50-0.24-73.50 0.51-74.10 0.51C-74.11 0.51-74.13 0.53-74.13 0.56C-74.13 0.70-73.96 1.16-73.96 1.74C-73.96 1.87-73.98 2.03-73.99 2.16C-74.15 3.11-74.38 4.13-74.38 5.07C-74.38 5.66-74.30 6.34-73.79 6.34C-73.52 6.34-73.42 6.14-73.42 5.82C-73.42 5.53-73.50 5.15-73.50 4.88C-73.50 4.08-73.31 3.20-73.16 2.40C-72.94 1.29-72.91 1.29-71.77 1.28L-71.68 1.28C-71.41 1.28-71.27 1.36-71.27 1.58C-71.27 1.92-71.41 2.35-71.46 2.76C-71.58 3.67-71.82 4.64-71.82 5.56C-71.82 5.94-71.56 6.56-71.19 6.56C-70.92 6.56-70.53 6.24-70.53 5.90C-70.53 5.70-70.78 5.34-70.78 5.00C-70.78 4.95-70.76 4.92-70.76 4.86C-70.59 3.73-70.41 2.59-70.20 1.43C-70.10 0.84-69.27 0.75-69.27 0.19C-69.27 0.04-69.32-0.07-69.42-0.07Z"/><path fill="#737373" opacity="1" d="M-68.59 2.98L-68.54 2.98C-68.43 3.78-68.33 4.44-67.75 4.44C-67.30 4.44-67.06 3.95-66.70 3.62C-66.58 3.54-66.39 3.47-66.26 3.40L-66.11 3.88C-65.95 4.34-65.77 5.19-65.34 5.19C-65.05 5.19-64.59 4.86-64.59 4.61C-64.59 4.41-64.80 4.01-64.80 3.61C-64.80 3.50-64.78 3.40-64.76 3.30C-64.51 2.09-64.22 0.90-63.91-0.30C-63.90-0.37-63.90-0.42-63.90-0.49C-63.90-0.80-64.10-1.15-64.51-1.15C-64.73-1.15-64.86-0.93-64.98-0.73C-65.65 0.46-66.28 1.63-66.97 2.82C-67.06 2.98-67.24 3.08-67.41 3.18C-67.47 2.98-67.62 2.81-67.62 2.59C-67.47 1.52-67.30 0.46-67.16-0.59C-67.13-0.73-67.07-0.86-67.07-1.00C-67.07-1.14-67.16-1.29-67.45-1.29C-67.75-1.29-67.91-1.09-67.96-0.80C-68.20 0.46-68.38 1.70-68.59 2.98Z"/><path fill="#737373" opacity="1" d="M-58.85-2.73C-58.90-2.73-58.95-2.75-58.98-2.75C-59.46-2.75-59.88-1.17-60.24-0.39C-60.31-0.24-60.50-0.13-60.61-0.05C-60.67-0.22-60.72-0.42-60.72-0.61C-60.72-0.68-60.70-0.76-60.67-0.85C-60.38-2.75-60.50-2.89-60.19-4.81C-60.19-4.86-60.17-4.91-60.17-4.96C-60.17-5.27-60.36-5.52-60.80-5.52C-61.07-5.52-61.26-5.35-61.31-5.03L-61.69-2.97C-62.16-0.81-62.69 2.08-63.22 4.90C-63.11 5.19-63.10 5.58-63.03 5.92C-62.99 6.04-62.84 6.17-62.77 6.29C-62.67 6.21-62.50 6.14-62.45 6.04C-62.06 5.03-61.69 4.00-61.45 2.89C-61.36 2.88-61.26 2.88-61.18 2.88C-59.75 2.88-58.71 4.64-58.25 5.70C-58.20 5.83-58.12 5.90-58.03 5.90C-57.81 5.90-57.66 5.49-57.66 5.17C-57.66 4.44-58.93 2.14-60.27 1.53L-59.70 0.95C-58.98 0.14-58.37-1.03-58.37-2.12C-58.37-2.43-58.52-2.65-58.85-2.73Z"/><path fill="#737373" opacity="1" d="M-54.56-0.56C-54.99-0.39-55.48-0.27-55.82 0.02C-56.81 0.73-57.49 2.01-57.49 3.27C-57.49 3.74-57.15 4.13-56.65 4.13C-56.09 4.13-55.51 3.62-55.40 3.62C-55.24 3.62-55.16 5.02-54.49 5.02C-53.83 5.02-53.80 2.25-53.51 0.73C-53.49 0.63-53.49 0.53-53.49 0.44C-53.49-0.15-53.83-0.49-54.56-0.56ZM-54.56 0.89C-55.07 1.65-55.74 3.06-56.33 3.06C-56.53 3.06-56.60 2.79-56.60 2.71C-56.60 2.23-55.89 1.21-55.41 0.58C-55.36 0.50-55.17 0.46-55.00 0.46C-54.78 0.46-54.77 0.55-54.56 0.89Z"/><path fill="#737373" opacity="1" d=""/><path fill="#737373" opacity="1" d="M-46.32-1.48C-46.33-1.51-46.33-1.58-46.37-1.63C-46.39-1.63-46.44-1.60-46.45-1.60C-46.66-1.70-46.98-1.77-47.01-1.90C-47.08-2.12-47.34-3.24-47.34-3.48L-47.34-3.53C-46.73-4.60-45.91-5.61-45.37-6.70C-45.26-6.90-45.21-7.10-45.21-7.32C-45.21-8.02-45.72-8.65-46.35-8.65C-46.83-8.65-47.24-8.26-47.49-7.56C-47.56-7.56-48.09-5.69-48.19-5.28C-48.92-2.28-49.82 0.84-49.92 3.95C-49.92 4.59-49.75 5.29-49.53 5.92C-49.38 6.21-48.83 6.39-48.54 6.39C-47.98 6.39-47.37 5.88-47.13 5.19C-46.54 3.44-45.99 1.63-45.86-0.25C-45.81-0.90-45.23-1.12-44.65-1.60C-44.62-1.61-44.58-1.70-44.58-1.75C-44.58-1.85-44.69-1.88-44.79-1.88C-44.80-1.88-44.84-1.87-44.86-1.87C-45.35-1.73-45.82-1.63-46.32-1.48ZM-48.63 3.84L-47.97-0.42C-47.97-0.52-47.88-0.63-47.88-0.75C-47.88-0.83-47.90-0.92-47.90-0.98C-47.90-1.19-47.85-1.34-47.49-1.34C-47.01-1.34-46.50-0.88-46.50-0.41C-46.50-0.37-46.52-0.32-46.52-0.29C-46.78 1.43-47.17 3.25-47.83 4.75C-47.90 4.90-48.12 4.97-48.26 5.07C-48.43 4.81-48.54 4.71-48.54 4.35C-48.54 4.18-48.53 4.01-48.53 3.84ZM-46.74-6.25C-46.64-6.70-46.56-7.12-46.42-7.49C-46.37-7.63-46.15-7.73-45.98-7.85C-45.88-7.68-45.67-7.46-45.67-7.32L-45.67-7.31C-45.82-6.88-46.20-5.83-46.54-5.83C-46.64-5.83-46.69-6.13-46.74-6.25Z"/><path fill="#737373" opacity="1" d=""/><path fill="#737373" opacity="1" d="M-42.20 3.49C-42.17 3.52-42.17 3.52-42.14 3.52C-42.14 3.57-42.15 3.62-42.15 3.67C-42.15 4.08-41.83 4.44-41.68 4.44C-41.01 4.44-40.78 3.88-40.35 3.40C-40.18 3.22-40.01 3.03-39.81 2.88L-39.70 3.56C-39.65 3.73-39.55 4.03-39.38 4.03C-39.02 4.03-38.45 3.33-38.00 2.94C-37.89 2.86-37.72 2.82-37.53 2.79C-37.51 2.94-37.46 3.13-37.46 3.30C-37.49 3.57-37.60 3.84-37.60 4.13C-37.55 4.51-37.39 4.76-37.05 4.76C-36.64 4.76-36.41 4.58-36.32 4.17C-36.05 2.91-35.85 1.63-35.61 0.34C-35.61 0.31-35.59 0.27-35.59 0.24C-35.59-0.18-35.86-0.49-36.05-0.49C-36.30-0.49-36.70-0.03-36.81 0.39C-37.17 1.55-37.95 2.86-39.01 3.37C-39.02 3.25-39.11 3.13-39.11 2.99C-39.11 2.52-38.85 1.97-38.85 1.48C-38.85 1.35-38.96 1.18-39.02 1.02C-39.18 1.09-39.42 1.14-39.52 1.26C-40.04 1.96-40.52 2.71-41.12 3.49C-41.18 3.56-41.34 3.56-41.44 3.57C-41.44 3.50-41.47 3.40-41.47 3.33C-41.47 2.86-41.23 2.23-41.12 1.74C-40.95 1.02-40.76 0.29-40.62-0.42C-40.62-0.54-40.76-0.71-40.84-0.85C-40.96-0.75-41.17-0.64-41.22-0.52C-41.37-0.13-41.46 0.27-41.56 0.70C-41.78 1.63-42.03 2.55-42.20 3.49Z"/><path fill="#737373" opacity="1" d="M-34.74 2.86C-34.74 4.30-34.06 5.09-32.92 5.09C-31.36 5.09-29.93 3.05-29.93 1.36C-29.93 0.80-30.05 0.24-30.29-0.32C-30.35-0.44-30.54-0.54-30.66-0.66C-30.93-0.52-31.07-0.44-31.07-0.18C-31.07 0.22-30.83 0.56-30.83 0.92C-30.83 1.86-31.43 2.98-31.94 3.86C-32.05 4.07-32.53 4.17-32.85 4.30C-32.99 4.05-33.28 3.79-33.28 3.54L-33.28 3.49C-33.04 2.40-32.80 1.28-31.73 0.38C-31.66 0.34-31.63 0.22-31.63 0.12C-31.63-0.18-32.00-0.32-32.39-0.32C-33.87-0.32-34.64 2.11-34.74 2.86Z"/><path fill="#737373" opacity="1" d="M-24.71-2.73C-24.76-2.73-24.81-2.75-24.85-2.75C-25.32-2.75-25.75-1.17-26.10-0.39C-26.17-0.24-26.36-0.13-26.48-0.05C-26.53-0.22-26.58-0.42-26.58-0.61C-26.58-0.68-26.56-0.76-26.53-0.85C-26.24-2.75-26.36-2.89-26.05-4.81C-26.05-4.86-26.04-4.91-26.04-4.96C-26.04-5.27-26.22-5.52-26.67-5.52C-26.94-5.52-27.12-5.35-27.18-5.03L-27.55-2.97C-28.03-0.81-28.55 2.08-29.08 4.90C-28.98 5.19-28.96 5.58-28.89 5.92C-28.86 6.04-28.71 6.17-28.64 6.29C-28.54 6.21-28.37 6.14-28.31 6.04C-27.92 5.03-27.55 4.00-27.31 2.89C-27.23 2.88-27.12 2.88-27.04 2.88C-25.61 2.88-24.57 4.64-24.12 5.70C-24.06 5.83-23.98 5.90-23.89 5.90C-23.67 5.90-23.52 5.49-23.52 5.17C-23.52 4.44-24.80 2.14-26.14 1.53L-25.56 0.95C-24.85 0.14-24.23-1.03-24.23-2.12C-24.23-2.43-24.39-2.65-24.71-2.73Z"/><path fill="#737373" opacity="1" d="M-23.18 2.86C-23.18 4.30-22.50 5.09-21.36 5.09C-19.80 5.09-18.37 3.05-18.37 1.36C-18.37 0.80-18.49 0.24-18.73-0.32C-18.79-0.44-18.98-0.54-19.10-0.66C-19.37-0.52-19.51-0.44-19.51-0.18C-19.51 0.22-19.27 0.56-19.27 0.92C-19.27 1.86-19.87 2.98-20.38 3.86C-20.49 4.07-20.97 4.17-21.29 4.30C-21.43 4.05-21.72 3.79-21.72 3.54L-21.72 3.49C-21.48 2.40-21.24 1.28-20.17 0.38C-20.10 0.34-20.07 0.22-20.07 0.12C-20.07-0.18-20.44-0.32-20.83-0.32C-22.31-0.32-23.08 2.11-23.18 2.86Z"/><path fill="#737373" opacity="1" d="M-14.05 4.42C-14.02 2.82-14.02 1.38-14.02-0.07C-14.02-0.24-14.17-0.54-14.31-0.54C-14.53-0.54-14.88-0.27-15.02 0.05L-17.54 4.32C-17.67 4.56-17.74 4.83-17.86 5.07C-16.84 4.47-16.33 3.71-15.58 2.91C-15.46 2.82-15.33 2.79-15.22 2.74C-15.17 2.86-15.11 3.01-15.11 3.13C-15.11 3.52-15.14 3.88-15.14 4.25C-15.14 4.58-14.95 4.75-14.70 4.75C-14.41 4.75-14.22 4.54-14.05 4.42Z"/><path fill="#737373" opacity="1" d="M-10.24-0.56C-10.67-0.39-11.16-0.27-11.50 0.02C-12.49 0.73-13.17 2.01-13.17 3.27C-13.17 3.74-12.83 4.13-12.33 4.13C-11.77 4.13-11.20 3.62-11.08 3.62C-10.92 3.62-10.84 5.02-10.18 5.02C-9.51 5.02-9.48 2.25-9.19 0.73C-9.17 0.63-9.17 0.53-9.17 0.44C-9.17-0.15-9.51-0.49-10.24-0.56ZM-10.24 0.89C-10.75 1.65-11.42 3.06-12.01 3.06C-12.22 3.06-12.28 2.79-12.28 2.71C-12.28 2.23-11.57 1.21-11.09 0.58C-11.04 0.50-10.86 0.46-10.69 0.46C-10.46 0.46-10.45 0.55-10.24 0.89Z"/><path fill="#737373" opacity="1" d="M-4.34-2.00C-5.16-2.00-5.14-0.97-5.93-0.97C-6.10-0.97-6.27-1.07-6.42-1.07C-7.47-1.07-8.48 1.24-8.48 2.21C-8.48 2.98-8.24 3.32-7.73 3.32C-7.56 3.32-7.27 3.23-7.12 3.23C-6.95 3.23-6.89 3.33-6.89 3.47C-6.89 3.86-7.08 4.47-7.23 4.88C-7.68 6.43-8.05 7.99-8.61 9.47C-8.90 10.22-9.24 10.98-9.94 11.46C-9.99 11.39-10.04 11.36-10.11 11.36C-10.36 11.36-10.36 11.21-10.36 11.17C-10.36 10.54-10.01 9.85-9.78 9.30C-9.24 7.99-8.54 6.72-7.83 5.48C-7.71 5.29-7.64 5.07-7.66 4.85C-7.66 4.68-7.71 4.07-8.00 4.07C-8.05 4.07-8.10 4.10-8.15 4.18C-9.38 6.28-11.04 8.79-11.04 11.34C-11.01 11.90-10.82 12.87-10.11 12.87C-10.04 12.87-9.99 12.85-9.94 12.77C-9.89 12.79-9.85 12.79-9.80 12.79C-9.41 12.79-8.51 11.90-8.10 11.36C-6.91 9.73-6.38 7.77-5.96 5.85C-5.57 4.07-5.16 2.30-4.72 0.53C-4.57-0.10-4.29-0.68-4.09-1.32C-4.06-1.41-4.04-1.51-4.04-1.61C-4.04-1.80-4.11-1.95-4.34-2.00ZM-7.32 2.48C-7.40 2.57-7.49 2.60-7.57 2.60C-7.73 2.60-7.83 2.45-7.83 2.25C-7.71 1.21-7.32 0.31-6.59-0.42C-6.52-0.49-6.40-0.52-6.28-0.52C-6.01-0.52-5.99-0.30-5.91-0.13C-6.13 0.92-6.55 1.82-7.32 2.48Z"/><path fill="#737373" opacity="1" d="M-3.36 3.50C-3.29 4.54-3.15 5.46-1.93 5.46C-1.27 5.46-0.25 4.92-0.25 4.20C-0.25 4.05-0.33 3.95-0.52 3.95C-0.81 3.95-1.11 4.15-1.42 4.18C-2.05 4.18-2.02 3.67-2.02 3.35C-2.02 2.52-1.15 2.30-0.74 1.57C-0.42 1.09 0.18 0.19 0.18-0.35C0.18-1.00-0.26-1.36-0.84-1.36C-2.54-1.36-3.31 1.77-3.36 3.50ZM-0.49 0.02C-0.71 0.43-1.08 1.23-1.37 1.23C-1.40 1.23-1.54 1.04-1.54 0.99C-1.40 0.61-1.10-0.41-0.81-0.41C-0.67-0.41-0.59-0.18-0.49 0.02Z"/></g>
<g transform="matrix(0.234375 0 0 0.234375 105.63 251.98)"  >
<g style=""   >
		<g transform="matrix(1 0 0 1 -247.049 -111.13300000000001)"  >
<linearGradient id="SVGID_20210" gradientUnits="userSpaceOnUse" gradientTransform="matrix(1 0 0 1 8.951 144.867)"  x1="0" y1="0" x2="512" y2="512">
<stop offset="0%" style="stop-color:rgb(238,42,123);stop-opacity: 1"/>
<stop offset="100%" style="stop-color:rgb(255,125,184);stop-opacity: 1"/>
</linearGradient>
<path style="stroke: none; stroke-width: 1; stroke-dasharray: none; stroke-linecap: butt; stroke-dashoffset: 0; stroke-linejoin: miter; stroke-miterlimit: 4; fill: url(#SVGID_20210); fill-rule: nonzero; opacity: 1;"  transform=" translate(-8.951, -144.867)" d="M 8.951 144.867" stroke-linecap="round" />
</g>
		<g transform="matrix(1 0 0 1 -47.33124709755293 79.07387808226667)"  >
<linearGradient id="SVGID_20211" gradientUnits="userSpaceOnUse" gradientTransform="matrix(1 0 0 1 36.04850580489423 166.69500000000005)"  x1="0" y1="0" x2="512" y2="512">
<stop offset="0%" style="stop-color:rgb(238,42,123);stop-opacity: 1"/>
<stop offset="100%" style="stop-color:rgb(255,125,184);stop-opacity: 1"/>
</linearGradient>
<path style="stroke: none; stroke-width: 1; stroke-dasharray: none; stroke-linecap: butt; stroke-dashoffset: 0; stroke-linejoin: miter; stroke-miterlimit: 4; fill: url(#SVGID_20211); fill-rule: nonzero; opacity: 1;"  transform=" translate(-208.66875290244707, -335.0738780822667)" d="M 307.806 249.737 c -12.771 9.215 -27.389 18.567 -43.838 28.035 c 0.84 6.627 -0.938 15.042 -5.403 23.108 c -7.861 14.188 -21.079 21.913 -29.526 17.24 c -7.185 -3.988 -8.596 -15.644 -4.026 -27.777 c -7.283 -0.492 -14.417 -2.582 -20.829 -6.136 c -6.524 -3.625 -12.012 -8.543 -16.225 -14.346 c -7.859 10.29 -18.479 15.273 -25.656 11.297 c -8.433 -4.673 -8.911 -19.985 -1.041 -34.19 c 4.459 -8.043 10.634 -14.009 16.687 -16.819 c -0.69 -18.97 -0.511 -36.323 0.529 -52.035 c -8.637 1.799 -18.353 2.722 -29.021 2.722 c -29.504 0 -63.685 -6.936 -91.241 -14.141 c -26.542 94.221 -41.708 289.84 28.892 328.941 c 70.602 39.102 228.385 -77.519 294.181 -149.996 C 342.548 309.222 317.892 277.041 307.806 249.737 z M 87.33 380.413 c 7.888 -14.196 21.111 -21.913 29.553 -17.231 c 8.441 4.656 8.917 19.977 1.049 34.182 c -7.861 14.197 -21.103 21.929 -29.535 17.24 C 79.956 409.931 79.478 394.61 87.33 380.413 z M 90.947 295.219 c 7.861 -14.205 21.094 -21.93 29.542 -17.249 c 8.434 4.664 8.894 19.976 1.032 34.19 c -7.861 14.197 -21.085 21.913 -29.535 17.24 C 83.544 324.728 83.077 309.415 90.947 295.219 z M 123.567 465.88 c -7.861 14.197 -21.085 21.922 -29.535 17.249 c -8.433 -4.682 -8.909 -19.994 -1.041 -34.182 c 7.861 -14.205 21.087 -21.939 29.535 -17.257 C 130.967 436.372 131.446 451.675 123.567 465.88 z M 125.11 226.957 c -7.861 14.197 -21.085 21.913 -29.517 17.24 c -8.458 -4.682 -8.928 -19.985 -1.067 -34.182 c 7.87 -14.205 21.111 -21.93 29.552 -17.249 C 132.511 197.448 132.98 212.752 125.11 226.957 z M 184.642 434.325 c -7.853 14.188 -21.085 21.913 -29.52 17.24 c -8.457 -4.673 -8.917 -19.994 -1.065 -34.182 c 7.87 -14.214 21.111 -21.948 29.552 -17.257 C 192.042 404.808 192.512 420.12 184.642 434.325 z M 188.256 349.113 c -7.879 14.197 -21.094 21.913 -29.535 17.249 c -8.45 -4.682 -8.918 -19.994 -1.057 -34.182 c 7.869 -14.214 21.085 -21.939 29.535 -17.249 C 195.647 319.604 196.117 334.908 188.256 349.113 z M 254.957 386.065 c -7.844 14.206 -21.085 21.931 -29.509 17.258 c -8.467 -4.682 -8.911 -19.985 -1.058 -34.19 c 7.854 -14.196 21.096 -21.93 29.537 -17.249 C 262.374 356.557 262.827 371.869 254.957 386.065 z M 325.3 337.833 c -7.861 14.197 -21.103 21.93 -29.544 17.24 c -8.441 -4.673 -8.919 -20.002 -1.041 -34.19 c 7.87 -14.196 21.094 -21.913 29.535 -17.249 C 332.691 308.307 333.159 323.627 325.3 337.833 z" stroke-linecap="round" />
</g>
		<g transform="matrix(1 0 0 1 -115.41842141081135 -172.42249999999999)"  >
<linearGradient id="SVGID_20212" gradientUnits="userSpaceOnUse" gradientTransform="matrix(1 0 0 1 32.131157178377364 12.511999999999986)"  x1="0" y1="0" x2="512" y2="512">
<stop offset="0%" style="stop-color:rgb(238,42,123);stop-opacity: 1"/>
<stop offset="100%" style="stop-color:rgb(255,125,184);stop-opacity: 1"/>
</linearGradient>
<path style="stroke: none; stroke-width: 1; stroke-dasharray: none; stroke-linecap: butt; stroke-dashoffset: 0; stroke-linejoin: miter; stroke-miterlimit: 4; fill: url(#SVGID_20212); fill-rule: nonzero; opacity: 1;"  transform=" translate(-140.58157858918867, -83.5775)" d="M 49.261 137.064 c 27.855 8.056 67.669 17.579 100.197 17.579 c 10.615 0 20.455 -1.015 28.849 -3.425 c 1.07 -0.307 2.13 -0.629 3.185 -0.958 c 3.208 -20.486 8.359 -37.205 15.45 -50.015 c 13.333 -24.077 31.692 -43.543 52.09 -56.377 c -12.807 -19.801 -39.682 -31.356 -70.942 -31.356 c -12.205 0 -25.076 1.759 -38.031 5.474 C 105.96 27.783 63.85 69.792 38.194 98.449 c -5.44 6.079 -7.392 14.521 -5.15 22.364 C 35.295 128.658 41.425 134.797 49.261 137.064 z" stroke-linecap="round" />
</g>
		<g transform="matrix(1 0 0 1 142.5836917839241 -24.855999999999995)"  >
<linearGradient id="SVGID_20213" gradientUnits="userSpaceOnUse" gradientTransform="matrix(1 0 0 1 329.82500000000005 118.744)"  x1="0" y1="0" x2="512" y2="512">
<stop offset="0%" style="stop-color:rgb(238,42,123);stop-opacity: 1"/>
<stop offset="100%" style="stop-color:rgb(255,125,184);stop-opacity: 1"/>
</linearGradient>
<path style="stroke: none; stroke-width: 1; stroke-dasharray: none; stroke-linecap: butt; stroke-dashoffset: 0; stroke-linejoin: miter; stroke-miterlimit: 4; fill: url(#SVGID_20213); fill-rule: nonzero; opacity: 1;"  transform=" translate(-398.5836917839241, -231.144)" d="M 463.928 197.371 c -13.237 -46.058 -46.841 -78.039 -79.58 -78.627 c -0.077 23.686 -6.7 49.417 -20.34 74.048 c -7.097 12.808 -18.532 26.04 -34.183 39.614 c 0.281 1.07 0.571 2.141 0.879 3.213 c 9.788 34.105 51.806 76.225 80.454 101.88 c 4.4 3.943 10.057 6.045 15.821 6.045 c 2.187 0 4.387 -0.303 6.544 -0.921 c 7.844 -2.251 13.958 -8.39 16.226 -16.234 C 460.44 289.455 473.707 231.484 463.928 197.371 z" stroke-linecap="round" />
</g>
		<g transform="matrix(1 0 0 1 74.30595911453673 -119.54764711137562)"  >
<linearGradient id="SVGID_20214" gradientUnits="userSpaceOnUse" gradientTransform="matrix(1 0 0 1 203.76111192344126 8.63770577724874)"  x1="0" y1="0" x2="512" y2="512">
<stop offset="0%" style="stop-color:rgb(238,42,123);stop-opacity: 1"/>
<stop offset="100%" style="stop-color:rgb(255,125,184);stop-opacity: 1"/>
</linearGradient>
<path style="stroke: none; stroke-width: 1; stroke-dasharray: none; stroke-linecap: butt; stroke-dashoffset: 0; stroke-linejoin: miter; stroke-miterlimit: 4; fill: url(#SVGID_20214); fill-rule: nonzero; opacity: 1;"  transform=" translate(-330.30595911453673, -136.45235288862438)" d="M 219.854 112.935 c -17.181 31.036 -17.266 90.541 -15.151 128.926 c 0.452 8.143 5.065 15.483 12.201 19.448 c 3.56 1.974 7.499 2.958 11.442 2.958 c 3.96 0 7.921 -0.993 11.511 -2.976 c 33.67 -18.553 84.043 -50.16 101.241 -81.196 c 22.193 -40.076 22.109 -84.204 2.225 -108.611 c 5.481 -8.045 11.156 -14.889 16.993 -20.474 c 9.345 -8.94 19.1 -14.68 29.124 -17.031 c 25.848 -6.063 46.855 12.22 47.292 12.606 c 4.913 4.445 12.499 4.086 16.971 -0.811 c 4.483 -4.912 4.136 -12.527 -0.775 -17.01 c -1.217 -1.111 -30.244 -27.106 -68.62 -18.314 c -15.48 3.545 -29.916 12.127 -43.238 25.65 c -5.895 5.983 -11.569 12.945 -17.021 20.859 c -6.358 -2.671 -13.165 -3.976 -20.201 -3.976 C 274.146 52.985 240.437 75.771 219.854 112.935 z" stroke-linecap="round" />
</g>
</g>
</g>
</svg>