<?xml version="1.0" encoding="utf-8"?>
<!-- Generator: Adobe Illustrator 19.2.1, SVG Export Plug-In . SVG Version: 6.00 Build 0)  -->
<svg version="1.1" id="Capa_1" xmlns="http://www.w3.org/2000/svg" xmlns:xlink="http://www.w3.org/1999/xlink" x="0px" y="0px"
	 viewBox="0 0 16.9 16.9" style="enable-background:new 0 0 16.9 16.9;" xml:space="preserve">
<style type="text/css">
	.st0{fill:#DF225B;}
</style>
<g>
	<g>
		<path class="st0" d="M5.3,5.6L1.4,1.7c0.5-0.5,1-1,1.5-1.5c0.2-0.2,0.6-0.2,0.8,0l3,3C7,3.4,7,3.8,6.8,4.1L6.1,4.7L5.5,5.3
			C5.4,5.4,5.4,5.5,5.3,5.6z M8.5,11.9c-0.6-0.5-1.3-1.1-1.8-1.7C6.1,9.6,5.5,9,4.9,8.4C4.5,7.8,4.4,7.1,4.6,6.5l-4-4
			c-0.9,1-0.8,3.3,0.2,5.4c0.4,0.9,1,1.7,1.6,2.5c0.6,0.8,1.2,1.5,1.9,2.2c0.7,0.7,1.4,1.3,2.2,1.9C7.3,15,8.1,15.6,9,16
			c2.1,1,4.5,1.1,5.4,0.2l-4-4C9.8,12.5,9,12.4,8.5,11.9z M16.7,13.1l-3-3c-0.2-0.2-0.6-0.2-0.8,0h0l-0.7,0.7l-0.6,0.6
			c-0.1,0.1-0.2,0.1-0.2,0.2l3.9,3.9c0.5-0.5,1-1,1.5-1.5C16.9,13.7,16.9,13.4,16.7,13.1z"/>
	</g>
</g>
</svg>
